<svg width="61" height="61" viewBox="0 0 61 61" fill="none" xmlns="http://www.w3.org/2000/svg">
<path d="M35.5692 47.05H24.9292C24.4837 47.05 24.0563 46.873 23.7413 46.5579C23.4262 46.2428 23.2492 45.8155 23.2492 45.3699V38.93C23.2492 38.4844 23.0722 38.0571 22.7572 37.742C22.4421 37.4269 22.0148 37.25 21.5692 37.25H15.1292C14.6837 37.25 14.2563 37.073 13.9413 36.7579C13.6262 36.4428 13.4492 36.0155 13.4492 35.5699V24.93C13.4492 24.4844 13.6262 24.0571 13.9413 23.742C14.2563 23.4269 14.6837 23.25 15.1292 23.25H21.5692C22.0148 23.25 22.4421 23.073 22.7572 22.7579C23.0722 22.4428 23.2492 22.0155 23.2492 21.5699V15.13C23.2492 14.6844 23.4262 14.2571 23.7413 13.942C24.0563 13.627 24.4837 13.45 24.9292 13.45H35.5692C36.0148 13.45 36.4421 13.627 36.7572 13.942C37.0722 14.2571 37.2492 14.6844 37.2492 15.13V21.5699C37.2492 22.0155 37.4262 22.4428 37.7413 22.7579C38.0563 23.073 38.4837 23.25 38.9292 23.25H45.3692C45.8148 23.25 46.2421 23.4269 46.5572 23.742C46.8722 24.0571 47.0492 24.4844 47.0492 24.93V35.5699C47.0492 36.0155 46.8722 36.4428 46.5572 36.7579C46.2421 37.073 45.8148 37.25 45.3692 37.25H38.9292C38.4837 37.25 38.0563 37.4269 37.7413 37.742C37.4262 38.0571 37.2492 38.4844 37.2492 38.93V45.3699C37.2492 45.8155 37.0722 46.2428 36.7572 46.5579C36.4421 46.873 36.0148 47.05 35.5692 47.05Z" stroke="#E1C166" stroke-width="4.5"/>
<path d="M30.25 58.25C45.7144 58.25 58.25 45.7144 58.25 30.25C58.25 14.7856 45.7144 2.25 30.25 2.25C14.7856 2.25 2.25 14.7856 2.25 30.25C2.25 45.7144 14.7856 58.25 30.25 58.25Z" stroke="#E1C166" stroke-width="4.5" stroke-linecap="round" stroke-linejoin="round"/>
</svg>
