<svg width="47" height="56" viewBox="0 0 47 56" fill="none" xmlns="http://www.w3.org/2000/svg">
<path d="M5.81407 6.02129e-05C3.64163 6.02129e-05 1.72333 1.53306 1.32296 3.73806C0.807704 6.60105 0 11.697 0 15.75C0 20.0585 2.21422 23.8455 5.55296 26.026C6.49644 26.6455 6.96296 27.4435 6.96296 28.126V29.561C6.96296 29.624 6.95948 29.687 6.95252 29.75C6.85852 30.66 6.42682 34.7515 6.01948 38.9585C5.61911 43.106 5.22222 47.5335 5.22222 49C5.22222 50.8565 5.95582 52.637 7.26163 53.9497C8.56744 55.2625 10.3385 56 12.1852 56C14.0319 56 15.8029 55.2625 17.1087 53.9497C18.4146 52.637 19.1481 50.8565 19.1481 49C19.1481 47.53 18.7513 43.106 18.3509 38.9585C18.0532 35.8888 17.7422 32.8205 17.4179 29.7535L17.4074 29.561V28.126C17.4074 27.44 17.8739 26.642 18.8174 26.026C20.5217 24.9144 21.9226 23.3919 22.8924 21.5972C23.8622 19.8025 24.3703 17.7925 24.3704 15.75C24.3704 11.697 23.5627 6.60105 23.0474 3.73806C22.8539 2.68435 22.298 1.7326 21.477 1.04928C20.656 0.365954 19.6221 -0.00543939 18.5563 6.02129e-05C17.3726 6.02129e-05 16.2933 0.44456 15.4787 1.17606C14.5478 0.41541 13.3848 0.0001401 12.1852 6.02129e-05C10.9353 6.02129e-05 9.78993 0.44106 8.8917 1.17606C8.0464 0.416197 6.94802 -0.00265266 5.81407 6.02129e-05ZM10.4444 5.25005C10.4444 4.78593 10.6278 4.34081 10.9543 4.01262C11.2807 3.68443 11.7235 3.50006 12.1852 3.50006C12.6469 3.50006 13.0896 3.68443 13.4161 4.01262C13.7425 4.34081 13.9259 4.78593 13.9259 5.25005V15.75C13.9259 16.2142 14.1093 16.6593 14.4358 16.9875C14.7622 17.3157 15.205 17.5 15.6667 17.5C16.1283 17.5 16.5711 17.3157 16.8976 16.9875C17.224 16.6593 17.4074 16.2142 17.4074 15.75V4.65505C17.4074 4.50338 17.4371 4.35319 17.4949 4.21306C17.5526 4.07293 17.6372 3.9456 17.7439 3.83835C17.8506 3.7311 17.9772 3.64602 18.1166 3.58798C18.256 3.52993 18.4054 3.50006 18.5563 3.50006C19.1029 3.50006 19.5311 3.87806 19.6216 4.36456C20.1334 7.21005 20.8889 12.0365 20.8889 15.75C20.8891 17.2097 20.526 18.6461 19.8328 19.9287C19.1396 21.2112 18.1383 22.299 16.92 23.093C15.3916 24.0905 13.9259 25.844 13.9259 28.126V29.561C13.9259 29.7477 13.9352 29.9344 13.9538 30.121C14.0513 31.024 14.4795 35.105 14.8868 39.298C15.2976 43.5505 15.6667 47.7505 15.6667 49C15.6667 49.9283 15.2999 50.8185 14.647 51.4749C13.9941 52.1313 13.1085 52.5 12.1852 52.5C11.2618 52.5 10.3763 52.1313 9.72341 51.4749C9.0705 50.8185 8.7037 49.9283 8.7037 49C8.7037 47.7505 9.07274 43.5505 9.48356 39.298C9.89089 35.105 10.3191 31.024 10.4166 30.121C10.4352 29.9344 10.4444 29.7477 10.4444 29.561V28.126C10.4444 25.844 8.97874 24.0905 7.45037 23.093C6.2321 22.299 5.23077 21.2112 4.53757 19.9287C3.84436 18.6461 3.48131 17.2097 3.48148 15.75C3.48148 12.04 4.23696 7.21005 4.74874 4.36456C4.79642 4.11666 4.92997 3.89378 5.12565 3.73551C5.32133 3.57723 5.56648 3.49381 5.81756 3.50006C6.12166 3.50098 6.41299 3.62308 6.62769 3.83958C6.8424 4.05609 6.96296 4.34934 6.96296 4.65505V15.75C6.96296 16.2142 7.14636 16.6593 7.47281 16.9875C7.79927 17.3157 8.24203 17.5 8.7037 17.5C9.16538 17.5 9.60814 17.3157 9.93459 16.9875C10.261 16.6593 10.4444 16.2142 10.4444 15.75V5.25005ZM27.8519 15.75C27.8519 11.5729 29.5024 7.56682 32.4405 4.61312C35.3786 1.65943 39.3635 6.02129e-05 43.5185 6.02129e-05C43.9802 6.02129e-05 44.423 0.184435 44.7494 0.512623C45.0759 0.840811 45.2593 1.28593 45.2593 1.75006V26.173L45.3289 26.957C45.6002 30.1018 45.8648 33.2471 46.1227 36.393C46.5544 41.6675 47 47.4565 47 49C47 50.8565 46.2664 52.637 44.9606 53.9497C43.6548 55.2625 41.8837 56 40.037 56C38.1903 56 36.4193 55.2625 35.1135 53.9497C33.8077 52.637 33.0741 50.8565 33.0741 49C33.0741 47.46 33.5197 41.6675 33.9514 36.393C34.1673 33.7295 34.3866 31.1535 34.5502 29.246L34.6547 28H33.0741C31.6891 28 30.3608 27.4469 29.3814 26.4623C28.402 25.4778 27.8519 24.1424 27.8519 22.75V15.75ZM38.2893 26.404L38.2162 27.2615L38.0178 29.547C37.8541 31.451 37.6348 34.02 37.419 36.68C36.9803 42.0595 36.5556 47.642 36.5556 49C36.5556 49.9283 36.9224 50.8185 37.5753 51.4749C38.2282 52.1313 39.1137 52.5 40.037 52.5C40.9604 52.5 41.8459 52.1313 42.4988 51.4749C43.1517 50.8185 43.5185 49.9283 43.5185 49C43.5185 47.642 43.0938 42.0595 42.6551 36.68C42.3968 33.5399 42.1311 30.4004 41.8579 27.2615L41.7847 26.4075V26.404L41.7778 26.25V3.62256C38.8772 4.04345 36.2246 5.50119 34.3064 7.72859C32.3881 9.95598 31.3326 12.8038 31.3333 15.75V22.75C31.3333 23.2142 31.5167 23.6593 31.8432 23.9875C32.1696 24.3157 32.6124 24.5 33.0741 24.5H36.5556C36.7971 24.5001 37.0359 24.5506 37.2569 24.6485C37.4779 24.7463 37.6763 24.8893 37.8393 25.0684C38.0024 25.2474 38.1266 25.4587 38.2041 25.6886C38.2816 25.9186 38.3106 26.1622 38.2893 26.404Z" fill="#E1C166"/>
</svg>
