<svg width="52" height="60" viewBox="0 0 52 60" fill="none" xmlns="http://www.w3.org/2000/svg">
<path d="M45.0769 10.6154H6.30769C3.92862 10.6154 2 12.544 2 14.923V32.1538C2 34.5329 3.92862 36.4615 6.30769 36.4615H45.0769C47.456 36.4615 49.3846 34.5329 49.3846 32.1538V14.923C49.3846 12.544 47.456 10.6154 45.0769 10.6154Z" stroke="#E1C166" stroke-width="4" stroke-linecap="round" stroke-linejoin="round"/>
<path d="M45.0769 36.4615H6.30769C3.92862 36.4615 2 38.3902 2 40.7692V49.3846C2 51.7637 3.92862 53.6923 6.30769 53.6923H45.0769C47.456 53.6923 49.3846 51.7637 49.3846 49.3846V40.7692C49.3846 38.3902 47.456 36.4615 45.0769 36.4615Z" stroke="#E1C166" stroke-width="4" stroke-linecap="round" stroke-linejoin="round"/>
<path d="M45.0769 10.6154H6.30769C5.1662 10.6122 4.07238 10.1573 3.26523 9.35016C2.45807 8.543 2.0032 7.44918 2 6.30769C2.0032 5.1662 2.45807 4.07238 3.26523 3.26523C4.07238 2.45807 5.1662 2.0032 6.30769 2H45.0769C46.2184 2.0032 47.3122 2.45807 48.1194 3.26523C48.9266 4.07238 49.3814 5.1662 49.3846 6.30769C49.3814 7.44918 48.9266 8.543 48.1194 9.35016C47.3122 10.1573 46.2184 10.6122 45.0769 10.6154ZM10.6154 53.6923V56.6538C10.6154 57.0109 10.4736 57.3533 10.2211 57.6057C9.96865 57.8582 9.62625 58 9.26923 58H5.5C5.14298 58 4.80058 57.8582 4.54813 57.6057C4.29567 57.3533 4.15385 57.0109 4.15385 56.6538V53.6923H10.6154ZM47.2308 53.6923V56.6538C47.2308 57.0109 47.0889 57.3533 46.8365 57.6057C46.584 57.8582 46.2416 58 45.8846 58H42.1154C41.7584 58 41.416 57.8582 41.1635 57.6057C40.9111 57.3533 40.7692 57.0109 40.7692 56.6538V53.6923H47.2308Z" stroke="#E1C166" stroke-width="4" stroke-linecap="round" stroke-linejoin="round"/>
<path d="M40.7691 47.2308C41.9586 47.2308 42.9229 46.2665 42.9229 45.0769C42.9229 43.8874 41.9586 42.9231 40.7691 42.9231C39.5795 42.9231 38.6152 43.8874 38.6152 45.0769C38.6152 46.2665 39.5795 47.2308 40.7691 47.2308Z" stroke="#E1C166" stroke-width="4" stroke-linejoin="round"/>
<path d="M10.6158 47.2308C11.8053 47.2308 12.7696 46.2665 12.7696 45.0769C12.7696 43.8874 11.8053 42.9231 10.6158 42.9231C9.42622 42.9231 8.46191 43.8874 8.46191 45.0769C8.46191 46.2665 9.42622 47.2308 10.6158 47.2308Z" stroke="#E1C166" stroke-width="4" stroke-linejoin="round"/>
<path d="M25.6923 10.6154V36.4616M2 6.30774V45.077M49.3846 6.30774V45.077" stroke="#E1C166" stroke-width="4" stroke-linecap="round" stroke-linejoin="round"/>
</svg>
