<svg width="59" height="51" viewBox="0 0 59 51" fill="none" xmlns="http://www.w3.org/2000/svg">
<path d="M29.5 8.08173L28.0181 9.49872C28.2101 9.69651 28.4403 9.85384 28.6949 9.9613C28.9495 10.0688 29.2233 10.1241 29.5 10.1241C29.7767 10.1241 30.0505 10.0688 30.3051 9.9613C30.5597 9.85384 30.7899 9.69651 30.9819 9.49872L29.5 8.08173ZM22.4365 43.0213C18.2763 39.7649 13.7292 36.5849 10.1206 32.552C6.58605 28.5953 4.11628 23.9819 4.11628 17.9924H0C0 25.2572 3.04605 30.7998 7.04433 35.266C10.9685 39.6532 15.9739 43.1684 19.8871 46.2313L22.4365 43.0213ZM4.11628 17.9924C4.11628 12.1338 7.45047 7.21792 12.0031 5.14966C16.4267 3.14136 22.3706 3.67273 28.0181 9.49872L30.9819 6.66747C24.286 -0.245775 16.5035 -1.38754 10.2907 1.43281C4.21507 4.1932 0 10.6023 0 17.9924H4.11628ZM19.8871 46.2313C21.2949 47.3322 22.8042 48.5039 24.3327 49.3923C25.8612 50.2806 27.6065 51 29.5 51V46.9125C28.6493 46.9125 27.6504 46.5855 26.41 45.8634C25.1669 45.144 23.8799 44.1522 22.4365 43.0213L19.8871 46.2313ZM39.1129 46.2313C43.0261 43.1657 48.0315 39.6559 51.9557 35.266C55.954 30.7971 59 25.2572 59 17.9924H54.8837C54.8837 23.9819 52.414 28.5953 48.8794 32.552C45.2708 36.5849 40.7237 39.7649 36.5635 43.0213L39.1129 46.2313ZM59 17.9924C59 10.6023 54.7877 4.1932 48.7093 1.43281C42.4965 -1.38754 34.7194 -0.245775 28.0181 6.66475L30.9819 9.49872C36.6294 3.67546 42.5733 3.14136 46.9969 5.14966C51.5495 7.21792 54.8837 12.131 54.8837 17.9924H59ZM36.5635 43.0213C35.1201 44.1522 33.8331 45.144 32.59 45.8634C31.3468 46.5828 30.3507 46.9125 29.5 46.9125V51C31.3935 51 33.1388 50.2779 34.6673 49.3923C36.1986 48.5039 37.7051 47.3322 39.1129 46.2313L36.5635 43.0213Z" fill="#E1C166"/>
</svg>
