<svg width="54" height="56" viewBox="0 0 54 56" fill="none" xmlns="http://www.w3.org/2000/svg">
<path d="M28.3943 30.9809L28.4242 30.9705C28.709 30.8546 29.0288 30.9072 29.2736 31.1018C35.7796 36.349 48.8009 29.9494 52.5583 25.8445C53.7081 24.5867 54.2033 22.8815 53.9235 21.1606C53.6382 19.4344 52.6226 17.9977 51.1398 17.2136L50.3145 16.7873L50.3453 16.8715C48.2218 16.161 45.8494 17.1136 44.2443 19.3871C43.9595 19.787 43.6445 20.2502 43.2998 20.7554C41.0762 24.0183 37.3536 29.4862 33.9407 30.0493C32.9763 30.2072 32.1118 29.9757 31.2874 29.339C30.9625 29.0864 30.8277 28.6336 30.9575 28.2391L30.9676 28.2075C31.0775 27.8706 31.3173 27.6233 31.6021 27.5443C39.4622 25.3287 42.7901 10.672 42.0907 5.07766C41.8758 3.34622 40.9165 1.87266 39.4673 1.03589C38.0083 0.193846 36.3143 0.135955 34.8102 0.878002L34.7053 0.93063C32.3916 2.06212 31.3523 4.87242 32.1118 7.92481C32.2319 8.40899 32.3818 8.9563 32.5416 9.551C33.9057 14.6453 36.1844 23.171 31.6522 24.7446C31.2076 24.8972 30.7278 24.7182 30.4729 24.3235L30.443 24.2762C30.2581 23.992 30.2281 23.6236 30.3529 23.3026C33.441 15.44 24.7066 3.65148 20.1945 0.783272C18.7803 -0.116656 17.0963 -0.248225 15.5674 0.425407C14.0284 1.09904 12.9241 2.46735 12.5344 4.17248L12.5092 4.28826C11.9097 6.90385 13.3438 9.51418 16.0771 10.7825C16.5119 10.9877 17.0163 11.2088 17.561 11.4509C22.2231 13.5191 30.0183 16.982 28.2194 21.7501C28.0644 22.1605 27.6596 22.4184 27.205 22.3921C26.8603 22.371 26.5503 22.1711 26.3956 21.8658C22.5281 14.3664 8.31689 14.2191 3.35014 16.161C1.80105 16.7662 0.656777 18.0767 0.202151 19.7555C-0.252754 21.4448 0.067027 23.2026 1.09154 24.5972L1.15645 24.6866C2.72037 26.8128 5.54856 27.2602 8.19714 25.7971C8.61679 25.5655 9.09157 25.2919 9.6111 24.9919C14.0785 22.4237 21.5587 18.124 23.9272 22.6921C24.1169 23.0552 24.062 23.5183 23.7873 23.8394L23.7571 23.8762C23.5224 24.1393 23.1824 24.2604 22.8478 24.1972C14.8878 22.6974 5.89854 34.328 4.23951 39.6435C3.71997 41.3011 3.9796 43.0693 4.94397 44.4903C5.90833 45.9166 7.41742 46.7429 9.07646 46.7692H9.18137C9.18137 46.7692 9.23145 46.7692 9.25131 46.7692C11.7698 46.7692 13.8334 44.7272 14.3932 41.659C14.483 41.1642 14.5778 40.6011 14.683 39.9854C15.3525 35.9752 16.4719 29.26 19.3751 27.2654C20.2194 26.6865 21.1488 26.5339 22.2181 26.8128C22.523 26.8918 22.7628 27.1759 22.8078 27.5127L22.8227 27.6022C22.8677 27.9075 22.7527 28.2178 22.5129 28.4284C16.217 33.9545 19.2301 48.7743 22.1932 53.5475C23.0977 55.0054 24.5617 55.8947 26.2157 55.9894C26.3105 55.9947 26.4057 56 26.5055 56C28.0594 56 29.4985 55.2843 30.5029 53.9843L30.558 53.9106C32.1768 51.8319 31.9619 48.8216 30.0183 46.4271C29.7083 46.0482 29.3536 45.6218 28.9639 45.1534C26.4054 42.1011 22.1283 36.9858 22.4581 33.3438C22.5529 32.2809 23.0227 31.423 23.897 30.7126C24.1619 30.4968 24.5416 30.4758 24.8415 30.66C25.1064 30.823 25.2712 31.1282 25.2813 31.4703C25.4363 40.1223 38.3079 46.8745 43.6946 47.4113C45.3374 47.5742 46.9125 46.9218 48.012 45.6218C49.1199 44.3114 49.5563 42.5748 49.2066 40.859L49.1814 40.738C48.6471 38.1066 46.3026 36.4174 43.2998 36.512C42.8251 36.528 42.2854 36.5593 41.6959 36.591C37.8482 36.7909 31.4074 37.133 28.909 34.6016C28.1794 33.8649 27.8347 32.9493 27.8445 31.7965C27.8445 31.4336 28.0695 31.1125 28.4043 30.9862L28.3943 30.9809Z" fill="#E1C166"/>
</svg>
