<svg width="55" height="61" viewBox="0 0 55 61" fill="none" xmlns="http://www.w3.org/2000/svg">
<path d="M11.5776 22.4767C11.5776 25.0466 9.49307 27.1312 6.91382 27.1312C4.33767 27.1312 2.25 25.0466 2.25 22.4767C2.25 19.9068 4.33767 17.8253 6.91693 17.8253C9.48996 17.8253 11.5776 19.9099 11.5776 22.4767Z" stroke="#E1C166" stroke-width="4.5"/>
<path d="M17.7071 2.25024L20.3766 20.2055C20.4699 20.8111 20.5156 21.4189 20.5135 22.0287V22.2776C20.5135 22.9309 20.445 23.5771 20.3081 24.2159L20.1526 24.9408C20.0993 25.1897 20.0157 25.4311 19.9037 25.6595L11.5654 42.6627M22.2434 20.1526L39.4114 27.3241L41.1506 28.077C42.2022 28.5344 43.005 29.4242 43.3503 30.5163L52.0432 58.2502M19.3965 30.1242L35.3419 36.3841M35.3419 36.3841L27.2027 57.8582M35.3419 36.3841L42.1338 29.6482" stroke="#E1C166" stroke-width="4.5" stroke-linecap="round" stroke-linejoin="round"/>
</svg>
