<svg width="67" height="61" viewBox="0 0 67 61" fill="none" xmlns="http://www.w3.org/2000/svg">
<path d="M64.474 19.36V34.916M40.2596 3.80397C38.1041 2.78081 35.748 2.25 33.362 2.25C30.976 2.25 28.62 2.78081 26.4645 3.80397L5.64743 13.5638C1.11752 15.6856 1.11752 23.0343 5.64743 25.1561L26.4614 34.916C28.6173 35.9396 30.9739 36.4707 33.3605 36.4707C35.747 36.4707 38.1037 35.9396 40.2596 34.916L61.0766 25.1561C65.6065 23.0343 65.6065 15.6856 61.0766 13.5638L40.2596 3.80397Z" stroke="#E1C166" stroke-width="4.5" stroke-linecap="round" stroke-linejoin="round"/>
<path d="M11.584 28.6937V44.6386C11.584 53.7171 26.188 58.2501 33.3624 58.2501C40.5368 58.2501 55.1408 53.7171 55.1408 44.6386V28.6937" stroke="#E1C166" stroke-width="4.5" stroke-linecap="round" stroke-linejoin="round"/>
</svg>
