<svg width="58" height="51" viewBox="0 0 58 51" fill="none" xmlns="http://www.w3.org/2000/svg">
<path fill-rule="evenodd" clip-rule="evenodd" d="M28.9964 1.61696e-06C29.5728 -0.000628447 30.1346 0.18289 30.6004 0.524052C31.0663 0.865214 31.4122 1.34636 31.5882 1.89801L43.5 39.308L48.1618 24.6704C48.3369 24.1187 48.682 23.6372 49.1473 23.2954C49.6125 22.9536 50.1737 22.7692 50.75 22.7688H55.2812C56.0023 22.7688 56.6938 23.0567 57.2037 23.569C57.7136 24.0814 58 24.7764 58 25.501C58 26.2257 57.7136 26.9206 57.2037 27.433C56.6938 27.9454 56.0023 28.2333 55.2812 28.2333H52.7329L46.0882 49.1041C45.9121 49.6547 45.5665 50.135 45.1014 50.4757C44.6363 50.8164 44.0756 51 43.5 51C42.9244 51 42.3637 50.8164 41.8986 50.4757C41.4335 50.135 41.0879 49.6547 40.9118 49.1041L29.0181 11.7523L20.7169 38.1641C20.5456 38.7084 20.209 39.1851 19.7544 39.5272C19.2998 39.8694 18.7499 40.0599 18.1821 40.0719C17.6142 40.084 17.0569 39.917 16.5883 39.5945C16.1197 39.2719 15.7634 38.8099 15.5694 38.2734L10.9874 25.6103L10.7336 26.3681C10.5534 26.9119 10.2075 27.385 9.74497 27.7204C9.28242 28.0558 8.72663 28.2365 8.15625 28.2369H2.71875C1.99769 28.2369 1.30617 27.9491 0.796303 27.4367C0.286439 26.9243 0 26.2293 0 25.5047C0 24.7801 0.286439 24.0851 0.796303 23.5727C1.30617 23.0603 1.99769 22.7724 2.71875 22.7724H6.19875L8.294 16.4445C8.47162 15.9056 8.81191 15.4356 9.26756 15.0999C9.72322 14.7642 10.2716 14.5796 10.8365 14.5716C11.4014 14.5635 11.9548 14.7326 12.4197 15.0552C12.8846 15.3778 13.2379 15.8379 13.4306 16.3717L17.9437 28.849L26.4081 1.91258C26.5814 1.35881 26.9257 0.874896 27.3911 0.531007C27.8565 0.187118 28.4187 0.00112769 28.9964 1.61696e-06Z" fill="#E1C166"/>
</svg>
