<svg width="11" height="21" viewBox="0 0 11 21" fill="none" xmlns="http://www.w3.org/2000/svg">
<path d="M8.70993 10.0057L0.217932 18.7327C0.148016 18.803 0.0927421 18.8865 0.0553075 18.9784C0.0178729 19.0702 -0.000978396 19.1685 -0.00015443 19.2677C0.000669536 19.3669 0.0211516 19.4649 0.0601063 19.5561C0.099061 19.6473 0.155715 19.7298 0.226789 19.799C0.297864 19.8682 0.381948 19.9225 0.474176 19.959C0.566404 19.9954 0.664947 20.0132 0.764097 20.0113C0.863248 20.0095 0.96104 19.9879 1.05181 19.948C1.14259 19.9081 1.22454 19.8505 1.29293 19.7787L10.2929 10.5287C10.4292 10.3887 10.5054 10.2011 10.5054 10.0057C10.5054 9.81036 10.4292 9.62272 10.2929 9.48271L1.29293 0.232705C1.22454 0.160892 1.14259 0.103356 1.05181 0.0634261C0.961041 0.0234958 0.86325 0.00196373 0.764099 7.54423e-05C0.664948 -0.00181284 0.566406 0.0159808 0.474178 0.0524283C0.38195 0.0888758 0.297866 0.143251 0.226791 0.212407C0.155717 0.281564 0.0990627 0.364131 0.060108 0.455329C0.0211532 0.546527 0.000671172 0.644544 -0.000152811 0.743709C-0.000976794 0.842874 0.0178745 0.941218 0.055309 1.03305C0.0927436 1.12488 0.148018 1.20838 0.217933 1.27871L8.70993 10.0057Z" fill="#E1C166"/>
</svg>
